<?xml version="1.0" encoding="UTF-8"?>
<svg width="500" height="80" viewBox="0 0 500 80" version="1.1" xmlns="http://www.w3.org/2000/svg">
  <defs>
    <linearGradient id="craneGradient" x1="0%" y1="0%" x2="100%" y2="100%">
      <stop offset="0%" style="stop-color:#e74c3c;"/>
      <stop offset="100%" style="stop-color:#c0392b;"/>
    </linearGradient>
    <filter id="shadow" x="-20%" y="-20%" width="140%" height="140%">
      <feGaussianBlur in="SourceAlpha" stdDeviation="2"/>
      <feOffset dx="2" dy="2" result="offsetblur"/>
      <feFlood flood-color="#34495e" flood-opacity="0.2"/>
      <feComposite in2="offsetblur" operator="in"/>
      <feMerge>
        <feMergeNode/>
        <feMergeNode in="SourceGraphic"/>
      </feMerge>
    </filter>
  </defs>
  
  <style>
    .text { font-family: 'Helvetica Neue', Arial, sans-serif; }
    .crane { fill: url(#craneGradient); }
    .company-name { fill: #34495e; filter: url(#shadow); }
  </style>
  
  <!-- Crane Icon with more elegant design -->
  <g class="crane" transform="translate(40,5)">
    <!-- Main structure -->
    <path d="M45,45 L55,8 L75,8 L85,45 M50,20 L80,20" 
          stroke="url(#craneGradient)" stroke-width="6" 
          stroke-linecap="round" stroke-linejoin="round" fill="none"/>
    
    <!-- Top circle -->
    <circle cx="65" cy="8" r="7" fill="url(#craneGradient)"/>
    
    <!-- Base with curve -->
    <path d="M35,45 C35,45 45,42 65,42 C85,42 95,45 95,45 L95,60 C95,62 93,64 91,64 L39,64 C37,64 35,62 35,60 Z" 
          fill="url(#craneGradient)"/>
    
    <!-- Decorative lines -->
    <path d="M65,8 Q55,25 50,45" 
          stroke="#34495e" stroke-width="1.5" 
          fill="none" opacity="0.4" 
          stroke-dasharray="3,3"/>
  </g>
  
  <!-- Company Name with refined typography -->
  <text x="160" y="38" class="text company-name" 
        font-size="34" letter-spacing="5" 
        font-weight="300">GRÚAS</text>
  <text x="160" y="68" class="text company-name" 
        font-size="40" letter-spacing="7" 
        font-weight="700">VILBA</text>
</svg>