<svg xmlns="http://www.w3.org/2000/svg" viewBox="0 0 19 10">
  <!-- Franjas rojas -->
  <rect width="19" height="10" fill="#b22234"/>
  <!-- Franjas blancas -->
  <rect y="0.77" width="19" height="0.77" fill="#fff"/>
  <rect y="2.31" width="19" height="0.77" fill="#fff"/>
  <rect y="3.85" width="19" height="0.77" fill="#fff"/>
  <rect y="5.38" width="19" height="0.77" fill="#fff"/>
  <rect y="6.92" width="19" height="0.77" fill="#fff"/>
  <rect y="8.46" width="19" height="0.77" fill="#fff"/>
  <!-- Cantón azul -->
  <rect width="7.6" height="5.38" fill="#3c3b6e"/>
  <!-- Estrellas simplificadas (representación simbólica) -->
  <g fill="#fff">
    <circle cx="1.3" cy="0.65" r="0.15"/>
    <circle cx="2.6" cy="0.65" r="0.15"/>
    <circle cx="3.9" cy="0.65" r="0.15"/>
    <circle cx="5.2" cy="0.65" r="0.15"/>
    <circle cx="6.5" cy="0.65" r="0.15"/>
    <circle cx="1.95" cy="1.3" r="0.15"/>
    <circle cx="3.25" cy="1.3" r="0.15"/>
    <circle cx="4.55" cy="1.3" r="0.15"/>
    <circle cx="5.85" cy="1.3" r="0.15"/>
    <circle cx="1.3" cy="1.95" r="0.15"/>
    <circle cx="2.6" cy="1.95" r="0.15"/>
    <circle cx="3.9" cy="1.95" r="0.15"/>
    <circle cx="5.2" cy="1.95" r="0.15"/>
    <circle cx="6.5" cy="1.95" r="0.15"/>
    <circle cx="1.95" cy="2.6" r="0.15"/>
    <circle cx="3.25" cy="2.6" r="0.15"/>
    <circle cx="4.55" cy="2.6" r="0.15"/>
    <circle cx="5.85" cy="2.6" r="0.15"/>
    <circle cx="1.3" cy="3.25" r="0.15"/>
    <circle cx="2.6" cy="3.25" r="0.15"/>
    <circle cx="3.9" cy="3.25" r="0.15"/>
    <circle cx="5.2" cy="3.25" r="0.15"/>
    <circle cx="6.5" cy="3.25" r="0.15"/>
    <circle cx="1.95" cy="3.9" r="0.15"/>
    <circle cx="3.25" cy="3.9" r="0.15"/>
    <circle cx="4.55" cy="3.9" r="0.15"/>
    <circle cx="5.85" cy="3.9" r="0.15"/>
    <circle cx="1.3" cy="4.55" r="0.15"/>
    <circle cx="2.6" cy="4.55" r="0.15"/>
    <circle cx="3.9" cy="4.55" r="0.15"/>
    <circle cx="5.2" cy="4.55" r="0.15"/>
    <circle cx="6.5" cy="4.55" r="0.15"/>
  </g>
</svg>